# xmcd
#
# Track frame offsets: 
#        150
#        15595
#        33198
#        49340
#        61799
#        76746
#        91129
#        111126
#        127979
#        149494
#        165835
#        181669
#        201177
#        212417
#        225646
#        240352
#        255485
#        274840
#        290707
#
# Disc length: 4137 seconds
#
# Revision: 2
# Processed by: cddbd v1.5.2PL0 Copyright (c) Steve Scherf et al.
# Submitted via: ExactAudioCopy v0.99pb5
#
DISCID=f2102713
DTITLE=Luther Ingram - I Don't Want To Be Right: The Ko Ko Singles Vol
DTITLE=2
DYEAR=2008
DGENRE=Soul
TTITLE0=Missing You (Version 2)
TTITLE1=You Were Made For Me
TTITLE2=(If Loving You Is Wrong) I Don't Want To Be Right
TTITLE3=Puttin' Game Down
TTITLE4=I'll Be Your Shelter (In Time Of Storm)
TTITLE5=I Can't Stop (Version 3)
TTITLE6=Always
TTITLE7=Help Me Love
TTITLE8=Love Ain't Gonna Run Me Away
TTITLE9=Ain't Good For Nothing
TTITLE10=These Are The Things
TTITLE11=Let's Steal Away To The Hideaway
TTITLE12=I've Got Your Love In My Life
TTITLE13=I Like The Feeling
TTITLE14=I'm Gonna Be The Best Thing
TTITLE15=Do You Love Somebody
TTITLE16=How I Miss My Baby
TTITLE17=Trying To Find My Love
TTITLE18=Get To Me
EXTD=
EXTT0=
EXTT1=
EXTT2=
EXTT3=
EXTT4=
EXTT5=
EXTT6=
EXTT7=
EXTT8=
EXTT9=
EXTT10=
EXTT11=
EXTT12=
EXTT13=
EXTT14=
EXTT15=
EXTT16=
EXTT17=
EXTT18=
PLAYORDER=
